<svg width="32" height="32" viewBox="0 0 32 32" fill="none" xmlns="http://www.w3.org/2000/svg">
<g clip-path="url(#clip0_8326_39992)">
<path d="M16 32C24.8366 32 32 24.8366 32 16C32 7.16344 24.8366 0 16 0C7.16344 0 0 7.16344 0 16C0 24.8366 7.16344 32 16 32Z" fill="#3468D1"/>
<path fill-rule="evenodd" clip-rule="evenodd" d="M14.2159 11.0919C14.5287 11.0919 14.8344 11.1847 15.0944 11.3585C15.3545 11.5323 15.5571 11.7794 15.6768 12.0683C15.7965 12.3573 15.8278 12.6753 15.7667 12.9821C15.7057 13.2888 15.555 13.5706 15.3338 13.7918C15.1126 14.0129 14.8308 14.1635 14.5241 14.2245C14.2173 14.2855 13.8993 14.2542 13.6104 14.1345C13.3214 14.0148 13.0744 13.8121 12.9006 13.552C12.7269 13.2919 12.6341 12.9862 12.6341 12.6734C12.6342 12.2539 12.8009 11.8517 13.0975 11.5551C13.3941 11.2585 13.7964 11.0919 14.2159 11.0919ZM18.0341 11.0919C18.3469 11.0919 18.6526 11.1848 18.9127 11.3586C19.1727 11.5324 19.3753 11.7794 19.495 12.0684C19.6146 12.3574 19.6459 12.6754 19.5848 12.9821C19.5238 13.2889 19.3731 13.5707 19.1519 13.7918C18.9307 14.0129 18.6489 14.1635 18.3421 14.2245C18.0354 14.2855 17.7174 14.2542 17.4284 14.1345C17.1395 14.0147 16.8925 13.812 16.7188 13.552C16.545 13.2919 16.4523 12.9862 16.4523 12.6734C16.4523 12.2539 16.619 11.8516 16.9157 11.555C17.2123 11.2584 17.6146 11.0918 18.0341 11.0919ZM18.0341 17.7451C18.3469 17.7452 18.6526 17.838 18.9127 18.0118C19.1727 18.1857 19.3753 18.4327 19.495 18.7217C19.6146 19.0107 19.6459 19.3286 19.5848 19.6354C19.5238 19.9421 19.3731 20.2239 19.1519 20.445C18.9307 20.6662 18.6489 20.8168 18.3421 20.8778C18.0354 20.9388 17.7174 20.9074 17.4284 20.7877C17.1395 20.668 16.8925 20.4653 16.7188 20.2052C16.545 19.9452 16.4523 19.6394 16.4523 19.3266C16.4523 19.1189 16.4932 18.9132 16.5727 18.7213C16.6522 18.5295 16.7687 18.3551 16.9156 18.2082C17.0625 18.0614 17.2369 17.9449 17.4288 17.8654C17.6207 17.786 17.8264 17.7451 18.0341 17.7451ZM14.2159 17.7451C14.5287 17.7452 14.8344 17.838 15.0944 18.0118C15.3545 18.1856 15.5571 18.4326 15.6768 18.7216C15.7965 19.0106 15.8278 19.3286 15.7667 19.6353C15.7057 19.9421 15.555 20.2238 15.3338 20.445C15.1126 20.6662 14.8308 20.8168 14.5241 20.8778C14.2173 20.9388 13.8993 20.9074 13.6104 20.7877C13.3214 20.668 13.0744 20.4653 12.9006 20.2052C12.7269 19.9452 12.6341 19.6394 12.6341 19.3266C12.6341 19.1189 12.6751 18.9133 12.7546 18.7214C12.8341 18.5295 12.9506 18.3551 13.0975 18.2083C13.2443 18.0614 13.4187 17.9449 13.6106 17.8655C13.8025 17.786 14.0082 17.7451 14.2159 17.7451ZM12.2523 14.473C12.565 14.473 12.8708 14.5658 13.1308 14.7397C13.3909 14.9135 13.5935 15.1605 13.7132 15.4495C13.8328 15.7384 13.8641 16.0564 13.8031 16.3632C13.742 16.67 13.5914 16.9517 13.3702 17.1729C13.149 17.394 12.8672 17.5446 12.5604 17.6056C12.2537 17.6666 11.9357 17.6353 11.6467 17.5156C11.3578 17.3959 11.1108 17.1932 10.937 16.9331C10.7632 16.673 10.6705 16.3673 10.6705 16.0545C10.6706 15.635 10.8372 15.2328 11.1339 14.9362C11.4305 14.6396 11.8328 14.473 12.2523 14.473ZM19.9977 14.473C20.3105 14.4731 20.6163 14.5659 20.8763 14.7397C21.1363 14.9135 21.339 15.1606 21.4586 15.4495C21.5782 15.7385 21.6095 16.0565 21.5484 16.3633C21.4874 16.67 21.3367 16.9518 21.1155 17.1729C20.8943 17.3941 20.6125 17.5446 20.3058 17.6056C19.999 17.6666 19.681 17.6353 19.3921 17.5156C19.1031 17.3959 18.8561 17.1932 18.6824 16.9331C18.5086 16.673 18.4159 16.3673 18.4159 16.0545C18.4159 15.8468 18.4568 15.6411 18.5363 15.4492C18.6158 15.2573 18.7324 15.083 18.8793 14.9361C19.0261 14.7893 19.2005 14.6728 19.3924 14.5933C19.5844 14.5138 19.79 14.473 19.9977 14.473ZM21.7977 11.7464C21.9919 11.7464 22.1816 11.804 22.343 11.9119C22.5044 12.0198 22.6302 12.1732 22.7045 12.3525C22.7787 12.5319 22.7981 12.7293 22.7602 12.9197C22.7223 13.1101 22.6288 13.2849 22.4915 13.4222C22.3542 13.5595 22.1793 13.6529 21.9889 13.6908C21.7985 13.7286 21.6011 13.7092 21.4218 13.6349C21.2424 13.5606 21.0891 13.4348 20.9813 13.2733C20.8734 13.1119 20.8159 12.9221 20.8159 12.728C20.8159 12.5991 20.8413 12.4714 20.8906 12.3523C20.94 12.2332 21.0123 12.125 21.1035 12.0338C21.1947 11.9426 21.3029 11.8703 21.422 11.821C21.5411 11.7717 21.6688 11.7463 21.7977 11.7464ZM21.7977 18.2904C21.9919 18.2904 22.1816 18.348 22.343 18.4559C22.5044 18.5638 22.6302 18.7171 22.7045 18.8965C22.7787 19.0759 22.7981 19.2733 22.7602 19.4637C22.7223 19.6541 22.6288 19.8289 22.4915 19.9662C22.3542 20.1035 22.1793 20.1969 21.9889 20.2348C21.7985 20.2726 21.6011 20.2532 21.4218 20.1789C21.2424 20.1046 21.0891 19.9788 20.9813 19.8173C20.8734 19.6559 20.8159 19.4661 20.8159 19.272C20.8159 19.1431 20.8413 19.0154 20.8906 18.8963C20.94 18.7772 21.0123 18.669 21.1035 18.5778C21.1947 18.4866 21.3029 18.4143 21.422 18.365C21.5411 18.3157 21.6688 18.2903 21.7977 18.2904ZM10.4522 18.2904C10.6464 18.2904 10.8362 18.348 10.9976 18.4559C11.159 18.5637 11.2848 18.7171 11.3591 18.8964C11.4333 19.0758 11.4528 19.2732 11.4149 19.4636C11.377 19.654 11.2835 19.8289 11.1462 19.9662C11.0089 20.1034 10.834 20.1969 10.6436 20.2348C10.4532 20.2726 10.2558 20.2532 10.0764 20.1789C9.89708 20.1046 9.74378 19.9788 9.63593 19.8174C9.52807 19.6559 9.4705 19.4661 9.4705 19.272C9.47053 19.0116 9.57398 18.762 9.75809 18.5779C9.9422 18.3938 10.1919 18.2904 10.4522 18.2904ZM10.4522 11.7464C10.6464 11.7464 10.8362 11.804 10.9976 11.9119C11.159 12.0198 11.2848 12.1731 11.3591 12.3524C11.4333 12.5318 11.4528 12.7292 11.4149 12.9196C11.377 13.11 11.2835 13.2849 11.1462 13.4222C11.0089 13.5594 10.834 13.6529 10.6436 13.6908C10.4532 13.7286 10.2558 13.7092 10.0764 13.6349C9.89708 13.5606 9.74378 13.4348 9.63593 13.2733C9.52807 13.1119 9.4705 12.9221 9.4705 12.728C9.47053 12.4676 9.57398 12.218 9.75809 12.0339C9.9422 11.8498 10.1919 11.7464 10.4522 11.7464ZM16.125 8.47425C16.3191 8.4743 16.5089 8.53192 16.6703 8.63981C16.8317 8.7477 16.9575 8.90103 17.0317 9.0804C17.106 9.25977 17.1254 9.45714 17.0875 9.64754C17.0496 9.83794 16.9561 10.0128 16.8188 10.1501C16.6815 10.2873 16.5066 10.3808 16.3162 10.4187C16.1258 10.4565 15.9284 10.4371 15.749 10.3628C15.5697 10.2885 15.4164 10.1626 15.3085 10.0012C15.2007 9.83979 15.1431 9.65001 15.1431 9.45587C15.1431 9.32694 15.1685 9.19927 15.2179 9.08016C15.2672 8.96105 15.3395 8.85283 15.4307 8.76167C15.5219 8.67052 15.6301 8.59821 15.7493 8.5489C15.8684 8.49958 15.9961 8.47422 16.125 8.47425ZM16.125 21.5625C16.3191 21.5625 16.5089 21.6202 16.6703 21.7281C16.8317 21.836 16.9575 21.9893 17.0317 22.1686C17.106 22.348 17.1254 22.5454 17.0875 22.7358C17.0496 22.9262 16.9561 23.1011 16.8188 23.2383C16.6815 23.3756 16.5066 23.469 16.3162 23.5069C16.1258 23.5448 15.9284 23.5253 15.749 23.451C15.5697 23.3767 15.4164 23.2509 15.3085 23.0895C15.2007 22.928 15.1431 22.7383 15.1431 22.5441C15.1431 22.4152 15.1685 22.2875 15.2179 22.1684C15.2672 22.0493 15.3395 21.9411 15.4307 21.8499C15.5219 21.7588 15.6301 21.6865 15.7493 21.6372C15.8684 21.5878 15.9961 21.5625 16.125 21.5625ZM20.325 22.5441C20.4868 22.5442 20.6449 22.5922 20.7794 22.6821C20.9139 22.772 21.0187 22.8998 21.0806 23.0493C21.1424 23.1987 21.1586 23.3632 21.127 23.5219C21.0954 23.6805 21.0175 23.8263 20.9031 23.9406C20.7887 24.055 20.6429 24.1329 20.4842 24.1644C20.3256 24.196 20.1611 24.1798 20.0117 24.1178C19.8622 24.0559 19.7345 23.9511 19.6446 23.8166C19.5547 23.682 19.5067 23.5239 19.5067 23.3621C19.5067 23.2547 19.5279 23.1483 19.569 23.049C19.6102 22.9498 19.6704 22.8596 19.7464 22.7836C19.8224 22.7077 19.9126 22.6474 20.0119 22.6063C20.1112 22.5652 20.2176 22.5441 20.325 22.5441ZM11.925 22.5441C12.0868 22.5442 12.2449 22.5922 12.3794 22.6821C12.5139 22.772 12.6187 22.8998 12.6806 23.0493C12.7424 23.1987 12.7586 23.3632 12.727 23.5219C12.6954 23.6805 12.6175 23.8263 12.5031 23.9406C12.3887 24.055 12.2429 24.1329 12.0842 24.1644C11.9256 24.196 11.7611 24.1798 11.6117 24.1178C11.4622 24.0559 11.3345 23.9511 11.2446 23.8166C11.1547 23.682 11.1068 23.5239 11.1068 23.3621C11.1068 23.2547 11.1279 23.1483 11.169 23.049C11.2102 22.9498 11.2704 22.8596 11.3464 22.7836C11.4224 22.7077 11.5126 22.6474 11.6119 22.6063C11.7112 22.5652 11.8176 22.5441 11.925 22.5441ZM11.925 7.81988C12.0868 7.81993 12.2449 7.86794 12.3794 7.95786C12.5139 8.04777 12.6187 8.17554 12.6806 8.32501C12.7424 8.47449 12.7586 8.63896 12.727 8.79762C12.6954 8.95628 12.6175 9.102 12.5031 9.21638C12.3887 9.33075 12.2429 9.40864 12.0842 9.44018C11.9256 9.47172 11.7611 9.45551 11.6117 9.39359C11.4622 9.33167 11.3345 9.22682 11.2446 9.09231C11.1547 8.95779 11.1068 8.79965 11.1068 8.63788C11.1068 8.53044 11.1279 8.42404 11.169 8.32478C11.2102 8.22552 11.2704 8.13533 11.3464 8.05937C11.4224 7.98341 11.5126 7.92317 11.6119 7.88207C11.7112 7.84098 11.8176 7.81984 11.925 7.81988ZM20.325 7.81988C20.4868 7.81993 20.6449 7.86794 20.7794 7.95786C20.9139 8.04777 21.0187 8.17554 21.0806 8.32501C21.1424 8.47449 21.1586 8.63896 21.127 8.79762C21.0954 8.95628 21.0175 9.102 20.9031 9.21638C20.7887 9.33075 20.6429 9.40864 20.4842 9.44018C20.3256 9.47172 20.1611 9.45551 20.0117 9.39359C19.8622 9.33167 19.7345 9.22682 19.6446 9.09231C19.5547 8.95779 19.5067 8.79965 19.5067 8.63788C19.5067 8.53044 19.5279 8.42404 19.569 8.32478C19.6102 8.22552 19.6704 8.13533 19.7464 8.05937C19.8224 7.98341 19.9126 7.92317 20.0119 7.88207C20.1112 7.84098 20.2176 7.81984 20.325 7.81988ZM24.5795 15.1275C24.7413 15.1275 24.8994 15.1755 25.0339 15.2654C25.1684 15.3553 25.2733 15.4831 25.3351 15.6326C25.397 15.782 25.4132 15.9465 25.3816 16.1052C25.3501 16.2638 25.2721 16.4096 25.1577 16.524C25.0433 16.6383 24.8976 16.7162 24.7389 16.7478C24.5802 16.7793 24.4158 16.7631 24.2663 16.7012C24.1168 16.6393 23.9891 16.5345 23.8992 16.3999C23.8093 16.2654 23.7614 16.1073 23.7614 15.9455C23.7614 15.7285 23.8476 15.5205 24.001 15.3671C24.1545 15.2137 24.3625 15.1275 24.5795 15.1275ZM7.67038 15.1275C7.83216 15.1275 7.99029 15.1755 8.1248 15.2654C8.2593 15.3553 8.36413 15.4831 8.42602 15.6326C8.48791 15.782 8.50409 15.9465 8.47252 16.1052C8.44094 16.2638 8.36302 16.4096 8.24862 16.524C8.13421 16.6383 7.98846 16.7162 7.82979 16.7478C7.67112 16.7793 7.50665 16.7631 7.35719 16.7012C7.20772 16.6393 7.07998 16.5345 6.9901 16.3999C6.90022 16.2654 6.85225 16.1073 6.85225 15.9455C6.85225 15.8381 6.87341 15.7317 6.91453 15.6324C6.95564 15.5332 7.01591 15.443 7.09188 15.367C7.16785 15.2911 7.25804 15.2308 7.3573 15.1897C7.45656 15.1486 7.56294 15.1275 7.67038 15.1275ZM7.07038 10.1103C7.19983 10.1103 7.32637 10.1486 7.43401 10.2206C7.54164 10.2925 7.62553 10.3947 7.67507 10.5143C7.7246 10.6339 7.73755 10.7655 7.71229 10.8925C7.68703 11.0194 7.62468 11.1361 7.53313 11.2276C7.44159 11.3191 7.32495 11.3815 7.19798 11.4067C7.07102 11.4319 6.93941 11.4189 6.81982 11.3694C6.70023 11.3198 6.59802 11.2359 6.52612 11.1283C6.45421 11.0206 6.41585 10.8941 6.41587 10.7646C6.41591 10.5911 6.48488 10.4246 6.60762 10.3019C6.73036 10.1792 6.89681 10.1103 7.07038 10.1103ZM7.07038 20.5809C7.19983 20.5809 7.32637 20.6193 7.43401 20.6912C7.54164 20.7631 7.62553 20.8653 7.67507 20.9849C7.7246 21.1045 7.73755 21.2361 7.71229 21.3631C7.68703 21.4901 7.62468 21.6067 7.53313 21.6982C7.44159 21.7897 7.32495 21.8521 7.19798 21.8773C7.07102 21.9026 6.93941 21.8896 6.81982 21.84C6.70023 21.7905 6.59802 21.7066 6.52612 21.5989C6.45421 21.4913 6.41585 21.3647 6.41587 21.2353C6.41591 21.0617 6.48488 20.8952 6.60762 20.7725C6.73036 20.6498 6.89681 20.5809 7.07038 20.5809ZM25.1795 20.5809C25.309 20.5809 25.4355 20.6193 25.5431 20.6912C25.6508 20.7631 25.7347 20.8653 25.7842 20.9849C25.8337 21.1045 25.8467 21.2361 25.8214 21.3631C25.7962 21.4901 25.7338 21.6067 25.6423 21.6982C25.5507 21.7897 25.4341 21.8521 25.3071 21.8773C25.1801 21.9026 25.0485 21.8896 24.9289 21.84C24.8094 21.7905 24.7071 21.7066 24.6352 21.5989C24.5633 21.4913 24.525 21.3647 24.525 21.2353C24.525 21.0617 24.594 20.8952 24.7167 20.7725C24.8395 20.6498 25.0059 20.5809 25.1795 20.5809ZM25.1795 10.1103C25.309 10.1103 25.4355 10.1486 25.5431 10.2206C25.6508 10.2925 25.7347 10.3947 25.7842 10.5143C25.8337 10.6339 25.8467 10.7655 25.8214 10.8925C25.7962 11.0194 25.7338 11.1361 25.6423 11.2276C25.5507 11.3191 25.4341 11.3815 25.3071 11.4067C25.1801 11.4319 25.0485 11.4189 24.9289 11.3694C24.8094 11.3198 24.7071 11.2359 24.6352 11.1283C24.5633 11.0206 24.525 10.8941 24.525 10.7646C24.525 10.5911 24.594 10.4246 24.7167 10.3019C24.8395 10.1792 25.0059 10.1103 25.1795 10.1103ZM16.125 4.875C16.2544 4.87502 16.381 4.91344 16.4886 4.98537C16.5962 5.05731 16.6801 5.15955 16.7296 5.27915C16.7791 5.39876 16.7921 5.53035 16.7668 5.65731C16.7415 5.78427 16.6791 5.90088 16.5876 5.99239C16.496 6.08391 16.3794 6.14622 16.2524 6.17145C16.1255 6.19668 15.9939 6.18369 15.8743 6.13413C15.7547 6.08457 15.6525 6.00066 15.5806 5.89301C15.5087 5.78537 15.4704 5.65882 15.4704 5.52937C15.4704 5.44342 15.4873 5.35831 15.5202 5.2789C15.5531 5.19949 15.6013 5.12734 15.6621 5.06657C15.7229 5.00581 15.7951 4.95761 15.8745 4.92474C15.9539 4.89187 16.039 4.87497 16.125 4.875ZM16.125 25.8161C16.2544 25.8161 16.381 25.8546 16.4886 25.9265C16.5962 25.9984 16.6801 26.1006 16.7296 26.2202C16.7791 26.3398 16.7921 26.4714 16.7668 26.5984C16.7415 26.7253 16.6792 26.842 16.5876 26.9335C16.4961 27.025 16.3795 27.0873 16.2525 27.1126C16.1256 27.1378 15.994 27.1248 15.8744 27.0753C15.7548 27.0258 15.6526 26.9419 15.5807 26.8342C15.5088 26.7266 15.4704 26.6001 15.4704 26.4706C15.4704 26.3847 15.4873 26.2995 15.5202 26.2201C15.5531 26.1407 15.6013 26.0686 15.6621 26.0078C15.7229 25.947 15.7951 25.8988 15.8745 25.8659C15.9539 25.833 16.039 25.8161 16.125 25.8161ZM21.9067 25.3799C22.0146 25.3799 22.1201 25.4119 22.2097 25.4718C22.2994 25.5317 22.3693 25.6169 22.4106 25.7165C22.4519 25.8162 22.4627 25.9259 22.4416 26.0316C22.4206 26.1374 22.3687 26.2346 22.2924 26.3109C22.2161 26.3872 22.1189 26.4391 22.0131 26.4601C21.9074 26.4812 21.7977 26.4704 21.698 26.4291C21.5984 26.3878 21.5132 26.3179 21.4533 26.2282C21.3934 26.1386 21.3614 26.0331 21.3614 25.9252C21.3614 25.8536 21.3755 25.7827 21.4029 25.7165C21.4303 25.6504 21.4705 25.5903 21.5211 25.5396C21.5718 25.489 21.6319 25.4488 21.698 25.4214C21.7642 25.394 21.8351 25.3799 21.9067 25.3799ZM10.3431 25.3799C10.451 25.3799 10.5564 25.4119 10.6461 25.4718C10.7358 25.5317 10.8057 25.6169 10.847 25.7165C10.8883 25.8162 10.8991 25.9259 10.878 26.0316C10.857 26.1374 10.805 26.2346 10.7288 26.3109C10.6525 26.3872 10.5553 26.4391 10.4495 26.4601C10.3437 26.4812 10.2341 26.4704 10.1344 26.4291C10.0348 26.3878 9.94959 26.3179 9.88966 26.2282C9.82974 26.1386 9.79775 26.0331 9.79775 25.9252C9.79775 25.8536 9.81186 25.7827 9.83926 25.7165C9.86667 25.6504 9.90684 25.5903 9.95749 25.5396C10.0081 25.489 10.0683 25.4488 10.1344 25.4214C10.2006 25.394 10.2715 25.3799 10.3431 25.3799ZM10.3431 5.52988C10.451 5.52988 10.5564 5.56186 10.6461 5.62179C10.7358 5.68171 10.8057 5.76689 10.847 5.86655C10.8883 5.9662 10.8991 6.07586 10.878 6.18165C10.857 6.28744 10.805 6.38462 10.7288 6.46089C10.6525 6.53716 10.5553 6.5891 10.4495 6.61015C10.3437 6.63119 10.2341 6.62039 10.1344 6.57911C10.0348 6.53783 9.94959 6.46793 9.88966 6.37824C9.82974 6.28856 9.79775 6.18311 9.79775 6.07525C9.79768 6.00359 9.81174 5.93262 9.83912 5.86639C9.8665 5.80017 9.90666 5.73998 9.95731 5.68929C10.008 5.63859 10.0681 5.59838 10.1343 5.57094C10.2005 5.5435 10.2715 5.52937 10.3431 5.52937V5.52988ZM21.9067 5.52988C22.0146 5.52988 22.1201 5.56186 22.2097 5.62179C22.2994 5.68171 22.3693 5.76689 22.4106 5.86655C22.4519 5.9662 22.4627 6.07586 22.4416 6.18165C22.4206 6.28744 22.3687 6.38462 22.2924 6.46089C22.2161 6.53716 22.1189 6.5891 22.0131 6.61015C21.9074 6.63119 21.7977 6.62039 21.698 6.57911C21.5984 6.53783 21.5132 6.46793 21.4533 6.37824C21.3934 6.28856 21.3614 6.18311 21.3614 6.07525C21.3613 6.00359 21.3754 5.93262 21.4027 5.86639C21.4301 5.80017 21.4703 5.73998 21.5209 5.68929C21.5716 5.63859 21.6317 5.59838 21.6979 5.57094C21.7641 5.5435 21.8351 5.52937 21.9067 5.52937V5.52988ZM27.5795 15.4549C27.6874 15.4549 27.7928 15.4869 27.8825 15.5468C27.9722 15.6067 28.0421 15.6919 28.0834 15.7916C28.1247 15.8913 28.1354 16.0009 28.1144 16.1067C28.0933 16.2125 28.0413 16.3097 27.965 16.386C27.8888 16.4622 27.7916 16.5142 27.6857 16.5352C27.5799 16.5562 27.4703 16.5454 27.3706 16.504C27.271 16.4627 27.1858 16.3928 27.1259 16.3031C27.066 16.2133 27.0341 16.1079 27.0341 16C27.0341 15.9284 27.0482 15.8575 27.0756 15.7913C27.103 15.7251 27.1432 15.665 27.1939 15.6144C27.2445 15.5637 27.3046 15.5235 27.3708 15.4961C27.437 15.4687 27.5079 15.4546 27.5795 15.4546V15.4549ZM4.67038 15.4549C4.77825 15.4549 4.8837 15.4869 4.97339 15.5468C5.06309 15.6067 5.13299 15.6919 5.17426 15.7916C5.21553 15.8913 5.22632 16.0009 5.20525 16.1067C5.18419 16.2125 5.13222 16.3097 5.05593 16.386C4.97963 16.4622 4.88243 16.5142 4.77662 16.5352C4.67081 16.5562 4.56115 16.5454 4.4615 16.504C4.36185 16.4627 4.27669 16.3928 4.21679 16.3031C4.15689 16.2133 4.12495 16.1079 4.125 16C4.125 15.9284 4.13911 15.8575 4.16651 15.7913C4.19392 15.7251 4.23409 15.665 4.28474 15.6144C4.33538 15.5637 4.3955 15.5235 4.46167 15.4961C4.52784 15.4687 4.59876 15.4546 4.67038 15.4546V15.4549Z" fill="white"/>
</g>
<defs>
<clipPath id="clip0_8326_39992">
<rect width="32" height="32" fill="white"/>
</clipPath>
</defs>
</svg>
