<svg width="32" height="32" viewBox="0 0 32 32" fill="none" xmlns="http://www.w3.org/2000/svg">
<g clip-path="url(#clip0_8123_138209)">
<path d="M32 16C32 24.8367 24.8367 32 16 32C7.16333 32 0 24.8367 0 16C0 7.16333 7.16333 0 16 0C24.8367 0 32 7.16333 32 16Z" fill="#F3BA2F"/>
<path d="M12.116 14.404L16 10.52L19.886 14.406L22.146 12.146L16 6L9.856 12.144L12.116 14.404ZM6 16L8.26 13.74L10.52 16L8.26 18.26L6 16ZM12.116 17.596L16 21.48L19.886 17.594L22.146 19.853L16 26L9.853 19.853L12.116 17.596ZM21.48 16L23.74 13.74L26 16L23.74 18.26L21.48 16ZM18.292 15.998H18.294V16L16 18.294L13.705 16L13.709 15.997L14.305 15.4L16 13.706L18.293 15.999L18.292 15.998Z" fill="white"/>
</g>
<defs>
<clipPath id="clip0_8123_138209">
<rect width="32" height="32" fill="white"/>
</clipPath>
</defs>
</svg>
