<svg width="32" height="32" viewBox="0 0 32 32" fill="none" xmlns="http://www.w3.org/2000/svg">
<g clip-path="url(#clip0_8121_138197)">
<path d="M16 0C24.84 0 32 7.16 32 16C32 24.84 24.84 32 16 32C7.16 32 0 24.84 0 16C0 7.16 7.16 0 16 0Z" fill="#3B55D8"/>
<path d="M15.9994 9.38684L21.7461 12.6935V19.3068L16.0261 22.6268L10.2794 19.3602V12.7202L15.9994 9.38684ZM15.9994 4.52017L13.8927 5.74684L8.1594 9.08017L6.05273 10.3068V21.7868L8.1594 23.0002L13.9061 26.2935L16.0127 27.5068L18.1194 26.2802L23.8394 22.9468L25.9461 21.7202V10.2135L23.8394 9.00017L18.0927 5.6935L15.9994 4.50684V4.52017Z" fill="white"/>
</g>
<defs>
<clipPath id="clip0_8121_138197">
<rect width="32" height="32" fill="white"/>
</clipPath>
</defs>
</svg>
