<svg width="32" height="32" viewBox="0 0 32 32" fill="none" xmlns="http://www.w3.org/2000/svg">
<g clip-path="url(#clip0_7372_31854)">
<path d="M15.9738 0.0322266H15.9999C24.8097 0.0322266 31.9542 6.99207 31.9542 15.5742V16.4394C31.9542 25.0215 24.8097 31.9813 15.9999 31.9813H15.9738C7.16402 31.9813 0.0195312 25.0215 0.0195312 16.4394V15.5742C0.0195313 6.99207 7.16402 0.0322266 15.9738 0.0322266Z" fill="#232323"/>
<path d="M22.811 12.0557C22.7587 12.113 22.6934 12.1575 22.6216 12.183C22.5498 12.2148 22.4714 12.2275 22.393 12.2275H7.6012C7.07875 12.2275 6.811 11.5913 7.17671 11.2096L9.6061 8.69669C9.65834 8.63943 9.72365 8.5949 9.80202 8.56309C9.87385 8.53128 9.95222 8.51855 10.0306 8.51855H24.8812C25.4102 8.51855 25.6714 9.1611 25.2992 9.54281L22.811 12.0557ZM22.811 23.2907C22.7 23.3989 22.5498 23.4625 22.393 23.4625H7.6012C7.07875 23.4625 6.811 22.839 7.17671 22.47L9.6061 20.0144C9.65834 19.9571 9.73018 19.9126 9.80202 19.8871C9.87385 19.8553 9.95222 19.8426 10.0306 19.8426H24.8812C25.4102 19.8426 25.6714 20.4724 25.2992 20.8414L22.811 23.2907ZM22.811 14.3524C22.7 14.2442 22.5498 14.1806 22.393 14.1806H7.6012C7.07875 14.1806 6.811 14.804 7.17671 15.173L9.6061 17.6287C9.65834 17.686 9.73018 17.7305 9.80202 17.7559C9.87385 17.7877 9.95222 17.8005 10.0306 17.8005H24.8812C25.4102 17.8005 25.6714 17.1706 25.2992 16.8017L22.811 14.3524Z" fill="url(#paint0_linear_7372_31854)"/>
</g>
<defs>
<linearGradient id="paint0_linear_7372_31854" x1="8.13698" y1="23.649" x2="23.884" y2="7.91124" gradientUnits="userSpaceOnUse">
<stop stop-color="#CF41E8"/>
<stop offset="1" stop-color="#10F2B0"/>
</linearGradient>
<clipPath id="clip0_7372_31854">
<rect width="32" height="32" fill="white"/>
</clipPath>
</defs>
</svg>
