<svg width="32" height="32" viewBox="0 0 32 32" fill="none" xmlns="http://www.w3.org/2000/svg">
<g clip-path="url(#clip0_7372_31857)">
<path d="M16 32C24.8366 32 32 24.8366 32 16C32 7.16343 24.8366 0 16 0C7.16343 0 0 7.16343 0 16C0 24.8366 7.16343 32 16 32Z" fill="#0098EA"/>
<path d="M21.463 8.92969H10.5363C8.52724 8.92969 7.25386 11.0968 8.26461 12.8488L15.0082 24.5372C15.4482 25.3004 16.551 25.3004 16.9911 24.5372L23.736 12.8488C24.7454 11.0996 23.472 8.92969 21.4643 8.92969H21.463ZM15.0027 21.032L13.534 18.1897L9.99038 11.8518C9.75661 11.4461 10.0453 10.9263 10.5349 10.9263H15.0013V21.0334L15.0027 21.032ZM22.0061 11.8504L18.4638 18.1911L16.9952 21.032V10.9249H21.4616C21.9511 10.9249 22.2399 11.4448 22.0061 11.8504Z" fill="white"/>
</g>
<defs>
<clipPath id="clip0_7372_31857">
<rect width="32" height="32" fill="white"/>
</clipPath>
</defs>
</svg>
