<svg width="32" height="32" viewBox="0 0 32 32" fill="none" xmlns="http://www.w3.org/2000/svg">
<g clip-path="url(#clip0_8326_39971)">
<path d="M16 32C24.8366 32 32 24.8366 32 16C32 7.16344 24.8366 0 16 0C7.16344 0 0 7.16344 0 16C0 24.8366 7.16344 32 16 32Z" fill="black"/>
<path d="M23.3006 7.03809H26.2863L20.0714 13.4819C17.8212 15.815 14.1731 15.815 11.9277 13.4819L5.71279 7.03809H8.69849L13.4181 11.9331C14.8452 13.4089 17.1539 13.4089 18.5761 11.9331L23.3006 7.03809ZM8.65952 24.962H5.67383L11.9277 18.4743C14.1779 16.1413 17.826 16.1413 20.0763 18.4743L26.3301 24.962H23.3445L18.5859 20.0232C17.1588 18.5474 14.8501 18.5474 13.4279 20.0232L8.65952 24.962Z" fill="white"/>
</g>
<defs>
<clipPath id="clip0_8326_39971">
<rect width="32" height="32" fill="white"/>
</clipPath>
</defs>
</svg>
