<?xml version="1.0" encoding="UTF-8"?>
<svg xmlns="http://www.w3.org/2000/svg" version="1.1" viewBox="0 0 801 162">
  <defs>
    <style>
      .cls-1 {
        fill: #fff;
      }
    </style>
  </defs>
  <!-- Generator: Adobe Illustrator 28.7.1, SVG Export Plug-In . SVG Version: 1.2.0 Build 142)  -->
  <g>
    <g id="Layer_1">
      <g>
        <polygon class="cls-1" points="85.8 .5 52.1 40.5 18.4 .5 .5 72.1 18.4 72.1 18.4 72.1 18.4 72.1 27.3 36.1 42.8 54.6 61.5 54.6 76.9 36.1 85.8 72.1 52.1 112.1 18.4 72.1 .5 143.7 18.4 143.7 27.3 107.7 42.8 126.2 61.5 126.2 76.9 107.7 85.8 143.7 103.8 143.7 85.8 72.1 103.8 72.1 85.8 .5"/>
        <path class="cls-1" d="M253.9,73c3.5,0,6.9-.4,10.3-1.1l8.5-12v12.2h16.4v-31.8c0-15.3-9.8-23.2-28.9-23.2s-17.3,1.6-24.8,4.8l-2.6,14.2c8.1-3.9,17.2-6,25.4-6s13.1,2.5,14.2,8.4l-20,2.3c-15.2,1.7-21.9,6.6-21.9,15.8h0c0,10.5,8.5,16.4,23.4,16.4ZM254,52.2l18.7-2.2v9.8c-4.4,1.1-9.4,1.8-13.8,1.8-7.3,0-10.8-1.5-10.8-5.2s1.8-3.8,5.9-4.3Z"/>
        <polygon class="cls-1" points="232.8 78.5 232.8 143.7 249.2 143.7 249.2 115.2 249.2 78.5 232.8 78.5"/>
        <path class="cls-1" d="M138,17.1c-18.9,0-31.1,10.1-31.1,28.2s12,27.8,34.1,27.8,16.4-1.4,22.8-4.1l2-13.9c-7,3.3-14.8,5.1-23.2,5.1s-16.5-3-18.5-9.6h44.4v-3.2h0c0-19.1-11.6-30.1-30.5-30.1ZM123.9,39.3c1.6-6.4,6.2-9.6,13.9-9.6s12.6,3.3,14.1,9.6h-28.1Z"/>
        <path class="cls-1" d="M137.2,88.7c-8.7,0-17.3,1.6-24.8,4.8l-2.6,14.2c8.1-3.9,17.2-6,25.4-6s13.1,2.5,14.2,8.4l-20,2.3c-15.2,1.7-21.9,6.6-21.9,15.8s8.5,16.4,23.4,16.4,6.9-.4,10.3-1.1l8.5-12v12.2h16.4v-31.8h0c0-15.3-9.8-23.2-28.9-23.2ZM135.8,133.3c-7.4,0-10.8-1.5-10.8-5.2s1.8-3.8,5.9-4.3l18.7-2.2v9.8c-4.4,1.1-9.4,1.8-13.8,1.8Z"/>
        <path class="cls-1" d="M184.6,53.2h0c0,13.2,7.6,19.9,22.7,19.9s11-1,15.7-3.2l2.1-14.4c-4.6,2.8-9.3,4.2-13.9,4.2-7.1,0-10.2-2.9-10.2-9.3v-19.1h24.9v-13.3h-24.9V6.8l-31.2,16.5v8h14.8v21.9Z"/>
        <path class="cls-1" d="M209.2,111.2h0s-14.5-2.1-14.5-2.1c-3.6-.6-5.1-1.7-5.1-3.7,0-3.2,3.5-4.7,10.8-4.7s15.9,1.7,23.9,5.4l-2-14c-6.4-2.3-13.7-3.4-21.4-3.4-17.8,0-27.6,6.2-27.6,17.4s5.3,13.6,16.7,15.3l14.7,2.2c3.7.6,5.2,2,5.2,4.3,0,3.2-3.4,4.8-10.4,4.8s-19.1-2.2-27.2-6.1l1.6,14c7,2.6,16,4.1,24.5,4.1,18.3,0,27.9-6.4,27.9-17.8s-5.3-13.9-17.2-15.7Z"/>
        <polygon class="cls-1" points="291.2 89.6 270.8 89.6 249.2 115.2 272.2 143.6 292.9 143.6 268.4 114.4 291.2 89.6"/>
        <polygon class="cls-1" points="18.4 72.1 18.4 72.1 18.4 72.1 18.4 72.1"/>
        <polygon class="cls-1" points="771.2 96.1 771.2 145.3 781.1 145.3 781.1 106.4 781.1 96.1 771.2 96.1"/>
        <path class="cls-1" d="M793.5,96c-1.9.2-3.8.5-5.8.9l-6.7,9.5c3.3-.7,6.6-1.2,9.8-1.5,3.2-.3,6.5-.5,10-.4v-8.7c-3,0-5.4,0-7.3.2Z"/>
        <path class="cls-1" d="M751,98.6c-3.6-2-8-3-13.2-3s-9.2,1.1-12.9,3.2c-3.7,2.1-6.7,5-8.8,8.9-2.1,3.8-3.1,8.2-3.1,13.2s1.1,9.8,3.3,13.5c2.2,3.7,5.4,6.5,9.5,8.5,4.2,1.9,9.2,2.9,15.1,2.9s6.6-.4,9.5-1.2c3-.8,5.5-1.8,7.7-3.2l1.5-9.7c-3.4,2-6.5,3.5-9.4,4.4-2.9.8-5.9,1.2-9,1.2-5.9,0-10.4-1.4-13.5-4.2-2.4-2.1-3.8-5.1-4.3-8.8h38.6v-3.1c0-5.4-.9-10-2.8-13.7-1.9-3.8-4.6-6.8-8.1-8.8ZM727.1,108.1c2.7-2.9,6.3-4.3,10.8-4.3s8.2,1.4,10.4,4.1c1.7,2.1,2.7,4.8,3.2,8.2h-28.1c.6-3.4,1.8-6.1,3.7-8.1Z"/>
        <path class="cls-1" d="M695.4,98.6c-3.6-2-7.9-3-12.8-3s-2.8.1-4.2.4c-1.4.2-2.7.5-3.9,1l-6.8,9.8c2.2-1,4.3-1.7,6.3-2.1,2-.4,3.9-.7,5.8-.7,5,0,9.1,1.5,12.2,4.5,3.1,3,4.6,7.1,4.6,12.3s-1.5,8.9-4.4,11.9c-3,3-7.1,4.5-12.4,4.5s-5.3-.4-7.4-1.2c-1.5-.5-3-1.4-4.5-2.5v-37.7h-9.9v65.5h9.9v-18.3c1,.5,2.1.9,3.1,1.2,2.8.9,5.8,1.3,9,1.3,5.8,0,10.7-1.1,14.7-3.4,4-2.3,7-5.4,9.1-9.2,2.1-3.9,3.1-8.2,3.1-12.8s-1-9.4-3-13.1c-2-3.7-4.8-6.6-8.4-8.6Z"/>
        <path class="cls-1" d="M636.3,98.5c-3.8-2-8.4-3-13.8-3s-10.1,1-14,3.1c-3.8,2-6.8,4.9-8.9,8.7-2,3.7-3,8.1-3,13.2s1,9.8,3.1,13.6c2.1,3.7,5,6.6,8.9,8.6,3.9,2,8.5,3,13.9,3s10.1-1,13.9-3c3.9-2.1,6.9-5,8.9-8.7,2.1-3.8,3.1-8.2,3.1-13.3s-1-9.8-3.1-13.5c-2.1-3.8-5.1-6.7-9-8.6ZM634,133.1c-2.6,2.8-6.4,4.2-11.5,4.2s-8.6-1.5-11.4-4.4c-2.7-3-4.1-7-4.1-12.2s1.3-9.6,3.9-12.4c2.6-2.9,6.5-4.3,11.6-4.3s8.6,1.5,11.4,4.4c2.7,2.9,4.1,6.9,4.1,12.1s-1.3,9.7-3.9,12.5Z"/>
        <rect class="cls-1" x="577.5" y="79.3" width="9.9" height="66"/>
        <path class="cls-1" d="M557.2,98.6c-3.6-2-8-3-13.2-3s-9.2,1.1-12.9,3.2c-3.7,2.1-6.7,5-8.8,8.9-2.1,3.8-3.1,8.2-3.1,13.2s1.1,9.8,3.3,13.5c2.2,3.7,5.4,6.5,9.5,8.5,4.2,1.9,9.2,2.9,15.1,2.9s6.6-.4,9.5-1.2c3-.8,5.5-1.8,7.7-3.2l1.5-9.7c-3.4,2-6.5,3.5-9.4,4.4-2.9.8-5.9,1.2-9,1.2-5.9,0-10.4-1.4-13.5-4.2-2.4-2.1-3.8-5.1-4.3-8.8h38.6v-3.1c0-5.4-.9-10-2.8-13.7-1.9-3.8-4.6-6.8-8.1-8.8ZM533.4,108.1c2.7-2.9,6.3-4.3,10.8-4.3s8.2,1.4,10.4,4.1c1.7,2.1,2.7,4.8,3.2,8.2h-28.1c.6-3.4,1.8-6.1,3.7-8.1Z"/>
        <polygon class="cls-1" points="490.8 129.4 474.6 96.1 463.9 96.1 489.7 145.8 491.8 145.8 517.4 96.1 507.3 96.1 490.8 129.4"/>
        <path class="cls-1" d="M450.7,98.6c-3.6-2-8-3-13.2-3s-9.2,1.1-12.9,3.2c-3.7,2.1-6.7,5-8.8,8.9-2.1,3.8-3.1,8.2-3.1,13.2s1.1,9.8,3.3,13.5c2.2,3.7,5.4,6.5,9.5,8.5,4.2,1.9,9.2,2.9,15.1,2.9s6.6-.4,9.5-1.2c3-.8,5.5-1.8,7.7-3.2l1.5-9.7c-3.4,2-6.5,3.5-9.4,4.4-2.9.8-5.9,1.2-9,1.2-5.9,0-10.4-1.4-13.5-4.2-2.4-2.1-3.8-5.1-4.3-8.8h38.6v-3.1c0-5.4-.9-10-2.8-13.7-1.9-3.8-4.6-6.8-8.1-8.8ZM426.9,108.1c2.7-2.9,6.3-4.3,10.8-4.3s8.2,1.4,10.4,4.1c1.7,2.1,2.7,4.8,3.2,8.2h-28.1c.6-3.4,1.8-6.1,3.7-8.1Z"/>
        <path class="cls-1" d="M389.7,83.2c-5-2.6-11.4-3.9-19.1-3.9h-28.5v66h27.8c7.8,0,14.3-1.2,19.4-3.7,5.2-2.5,9.1-6.2,11.7-11.1,2.6-5,3.9-11.2,3.9-18.5s-1.3-12.8-3.9-17.6c-2.5-4.9-6.3-8.6-11.4-11.2ZM388.3,130.6c-4.1,3.7-10.3,5.6-18.8,5.6h-17.3v-47.9h17.4c8.8,0,15.1,2,18.9,5.9,3.9,3.9,5.8,10,5.8,18.1s-2,14.5-6.1,18.3Z"/>
      </g>
    </g>
  </g>
</svg>