<svg width="1024" height="1025" viewBox="0 0 1024 1025" fill="none" xmlns="http://www.w3.org/2000/svg">
<g clip-path="url(#clip0_610_4857)">
<path d="M855.201 865.739L685.175 815.35L556.961 891.638H467.489L339.191 815.35L169.249 865.739L117.58 692L169.292 499.19L117.58 336.16L169.249 134.134L434.807 292.086H589.644L855.201 134.134L906.913 336.16L855.201 499.19L906.913 692L855.201 865.739Z" fill="#0A0A0A"/>
<path d="M898.39 698.362L850.944 857.765L691.627 810.49L678.827 806.693L660.566 801.274L582.4 778.063L575.574 778.959L572.928 788.602L669.44 817.231L555.179 885.242H469.376L355.115 817.231L451.584 788.645L448.939 778.959L442.155 778.063L345.686 806.693L332.886 810.49L173.611 857.765L126.166 698.362L110.934 692.133L164.992 873.679L338.39 822.181L465.835 898.042H558.72L686.166 822.181L859.563 873.679L913.579 692.133L898.39 698.362Z" fill="#89B0FF"/>
<path d="M332.886 698.356V810.484L345.686 806.687V704.884L442.155 778.058L448.939 778.954L455.254 771.914L341.376 685.556H125.952L174.208 505.588L162.646 499.316L110.934 692.127L126.166 698.356H332.886Z" fill="#D075FF"/>
<path d="M730.659 597.242L689.699 607.354V620.581L750.03 605.648L750.414 505.594H741.923L737.614 502.65L737.273 585.808L687.822 539.13H585.251H585.209L583.246 551.973H682.745L730.659 597.242Z" fill="#D075FF"/>
<path d="M334.837 620.581V607.354L293.877 597.242L341.792 551.973H441.248L439.285 539.13H339.189L334.795 540.88L287.264 585.808L286.923 502.65L282.613 505.594H274.08L274.464 605.648L334.837 620.581Z" fill="#D075FF"/>
<path d="M850.313 505.588L898.569 685.556H683.145L569.268 771.914L575.582 778.954L582.409 778.058L678.836 704.884V806.687L691.636 810.484V698.356H898.398L913.588 692.127L861.918 499.316L850.313 505.588Z" fill="#D075FF"/>
<path d="M274.091 505.588H282.624L286.934 502.644L419.584 411.764L439.339 539.167L441.302 552.009L472.448 752.927L483.542 748.447H484.694L430.763 400.457L440.704 298.527H583.851L593.75 400.585L539.819 748.447H540.971L552.064 752.927L583.211 552.009L585.174 539.167H585.216L604.971 411.764L737.579 502.644L741.888 505.631H850.304L861.867 499.359L913.536 336.372L859.307 124.233L588.075 285.684H436.48L165.206 124.233L110.934 336.372L162.603 499.359L174.166 505.631H274.048L274.091 505.588ZM900.267 335.988L850.518 492.788H746.027L610.048 399.647L851.883 146.889L900.267 335.988ZM818.091 163.7L605.27 386.121L596.438 295.625L818.091 163.7ZM428.075 295.583L419.286 386.121L206.464 163.657L428.075 295.54V295.583ZM124.246 335.988L172.63 146.889L414.464 399.647L278.486 492.788H173.995L124.246 335.988Z" fill="#FF5C16"/>
<path d="M548.091 748.45H476.454L448.934 778.957L462.63 828.92H561.83L575.526 778.957L548.006 748.45H548.091ZM552.059 816.12H472.528L463.227 782.242L482.043 761.378H542.544L561.36 782.242L552.059 816.12Z" fill="#BAF24A"/>
<path d="M441.384 639.305L440.19 636.19V636.105L418.984 581.15H361.64L334.846 607.348V620.532L429.438 643.913L441.384 639.305ZM366.846 593.993H410.195L423.806 629.236L349.48 610.889L366.803 593.993H366.846Z" fill="#BAF24A"/>
<path d="M595.033 643.92L689.625 620.539V607.355L662.83 581.2H605.486L584.281 636.112V636.198L583.086 639.312L595.033 643.92ZM674.947 610.896L600.622 629.243L614.233 593.958H657.582L674.905 610.896H674.947Z" fill="#BAF24A"/>
</g>
<defs>
<clipPath id="clip0_610_4857">
<rect width="1024" height="1024" fill="white" transform="translate(0 0.5)"/>
</clipPath>
</defs>
</svg>
